<svg width="10" height="10" viewBox="0 0 10 10" fill="none" xmlns="http://www.w3.org/2000/svg">
<path d="M9.75 1.03125V7.59375C9.75 7.97656 9.44922 8.25 9.09375 8.25C8.71094 8.25 8.4375 7.97656 8.4375 7.59375V2.61719L2.12109 8.93359C1.98438 9.07031 1.82031 9.125 1.65625 9.125C1.46484 9.125 1.30078 9.07031 1.19141 8.93359C0.917969 8.6875 0.917969 8.27734 1.19141 8.03125L7.50781 1.6875H2.53125C2.14844 1.6875 1.875 1.41406 1.875 1.03125C1.875 0.675781 2.14844 0.375 2.53125 0.375H9.09375C9.44922 0.375 9.75 0.675781 9.75 1.03125Z" fill="#161616"/>
</svg>
